<svg xmlns="http://www.w3.org/2000/svg" xmlns:xlink="http://www.w3.org/1999/xlink" version="1.1" x="0px" y="0px" viewBox="NaN NaN NaN 125"><g><path d="M95.625,20.625 L95.625,79.625 L4.375,79.625 L4.375,20.625 L95.625,20.625 z M91.875,24.375 L8.125,24.375 L8.125,75.875 L91.875,75.875 L91.875,24.375 z" fill="#000000"/><path d="M19,40 C16.239,40 14,37.762 14,35 C14,32.238 16.239,30 19,30 C21.761,30 24,32.238 24,35 C24,37.762 21.761,40 19,40 z" fill="#000000"/><path d="M19,55.5 C16.239,55.5 14,53.262 14,50.5 C14,47.738 16.239,45.5 19,45.5 C21.761,45.5 24,47.738 24,50.5 C24,53.262 21.761,55.5 19,55.5 z" fill="#000000"/><path d="M19,70 C16.239,70 14,67.761 14,65 C14,62.238 16.239,60 19,60 C21.761,60 24,62.238 24,65 C24,67.761 21.761,70 19,70 z" fill="#000000"/><path d="M30.625,34.375 L82.625,34.625" fill-opacity="1.0" stroke="#000000" stroke-width="3.75"/><path d="M30.625,50 L82.625,50.25" fill-opacity="1.0" stroke="#000000" stroke-width="3.75"/><path d="M30.625,65 L82.625,65.25" fill-opacity="1.0" stroke="#000000" stroke-width="3.75"/></g><text x="NaN" y="NaN" fill="#000000" font-size="5px" font-weight="bold" font-family="'Helvetica Neue', Helvetica, Arial-Unicode, Arial, Sans-serif">Created by tom</text><text x="NaN" y="NaN" fill="#000000" font-size="5px" font-weight="bold" font-family="'Helvetica Neue', Helvetica, Arial-Unicode, Arial, Sans-serif">from the Noun Project</text></svg>