<?xml version="1.0" ?><!DOCTYPE svg  PUBLIC '-//W3C//DTD SVG 1.1//EN'  'http://www.w3.org/Graphics/SVG/1.1/DTD/svg11.dtd'><svg height="100%" style="fill-rule:evenodd;clip-rule:evenodd;stroke-linejoin:round;stroke-miterlimit:1.41421;" version="1.1" viewBox="0 0 1062 1062" width="100%" xml:space="preserve" xmlns="http://www.w3.org/2000/svg" xmlns:xlink="http://www.w3.org/1999/xlink"><circle cx="531.308" cy="531.308" id="circle6" r="531.308" style="fill:rgb(37,183,211);"/><path d="M977.835,523.869C977.825,478.516 941.051,441.758 895.698,441.767L418.948,441.869C373.595,441.879 336.837,478.653 336.846,524.006L336.881,688.245C336.891,733.598 373.665,770.357 419.018,770.347L466.329,770.337L444.501,911.118L531.641,770.323L895.768,770.245C941.121,770.236 977.88,733.462 977.87,688.108L977.835,523.869Z" style="fill:rgb(208,211,212);"/><path d="M725.735,372.388C725.725,327.035 688.951,290.276 643.598,290.286L166.848,290.388C121.495,290.397 84.7363,327.171 84.746,372.525L84.7809,536.764C84.7906,582.117 121.565,618.875 166.918,618.866L214.229,618.856L192.401,759.636L279.541,618.842L643.668,618.764C689.021,618.754 725.779,581.98 725.77,536.627L725.735,372.388Z" style="fill:rgb(235,235,235);"/></svg>