<svg xmlns="http://www.w3.org/2000/svg" xmlns:xlink="http://www.w3.org/1999/xlink" version="1.1" x="0px" y="0px" viewBox="0 0 100 125" enable-background="new 0 0 100 100" xml:space="preserve"><g><path fill="#000000" d="M84.412,30.188H67.588c-0.276,0-0.5-0.224-0.5-0.5s0.224-0.5,0.5-0.5h16.824c0.276,0,0.5,0.224,0.5,0.5   S84.688,30.188,84.412,30.188z"/></g><g><path fill="#000000" d="M84.412,34.354H67.588c-0.276,0-0.5-0.224-0.5-0.5s0.224-0.5,0.5-0.5h16.824c0.276,0,0.5,0.224,0.5,0.5   S84.688,34.354,84.412,34.354z"/></g><g><path fill="#000000" d="M77.167,38.646h-9.579c-0.276,0-0.5-0.224-0.5-0.5s0.224-0.5,0.5-0.5h9.579c0.276,0,0.5,0.224,0.5,0.5   S77.443,38.646,77.167,38.646z"/></g><g><path fill="#000000" d="M50.536,59.5c-0.276,0-0.5-0.224-0.5-0.5v-7.75c0-0.276,0.224-0.5,0.5-0.5s0.5,0.224,0.5,0.5V59   C51.036,59.276,50.812,59.5,50.536,59.5z"/></g><g><path fill="#000000" d="M50.536,73.333c-0.276,0-0.5-0.224-0.5-0.5v-7.708c0-0.276,0.224-0.5,0.5-0.5s0.5,0.224,0.5,0.5v7.708   C51.036,73.11,50.812,73.333,50.536,73.333z"/></g><g><path fill="#000000" d="M50.393,87.354c-0.276,0-0.5-0.224-0.5-0.5v-7.708c0-0.276,0.224-0.5,0.5-0.5s0.5,0.224,0.5,0.5v7.708   C50.893,87.13,50.669,87.354,50.393,87.354z"/></g><g><path fill="#000000" d="M47.056,48.797h-3.875c-0.276,0-0.5-0.224-0.5-0.5s0.224-0.5,0.5-0.5h3.875c0.276,0,0.5,0.224,0.5,0.5   S47.332,48.797,47.056,48.797z"/></g><g><path fill="#000000" d="M34.333,47.093H22.896c-0.276,0-0.5-0.224-0.5-0.5s0.224-0.5,0.5-0.5h11.438c0.276,0,0.5,0.224,0.5,0.5   S34.609,47.093,34.333,47.093z"/></g><g><path fill="#000000" d="M29.75,50.25h-6.854c-0.276,0-0.5-0.224-0.5-0.5s0.224-0.5,0.5-0.5h6.854c0.276,0,0.5,0.224,0.5,0.5   S30.026,50.25,29.75,50.25z"/></g><g><path fill="#000000" d="M34.333,73.53H22.896c-0.276,0-0.5-0.224-0.5-0.5s0.224-0.5,0.5-0.5h11.438c0.276,0,0.5,0.224,0.5,0.5   S34.609,73.53,34.333,73.53z"/></g><g><path fill="#000000" d="M29.75,76.687h-6.854c-0.276,0-0.5-0.224-0.5-0.5s0.224-0.5,0.5-0.5h6.854c0.276,0,0.5,0.224,0.5,0.5   S30.026,76.687,29.75,76.687z"/></g><g><path fill="#000000" d="M74.833,60.737H63.396c-0.276,0-0.5-0.224-0.5-0.5s0.224-0.5,0.5-0.5h11.438c0.276,0,0.5,0.224,0.5,0.5   S75.109,60.737,74.833,60.737z"/></g><g><path fill="#000000" d="M70.25,63.894h-6.854c-0.276,0-0.5-0.224-0.5-0.5s0.224-0.5,0.5-0.5h6.854c0.276,0,0.5,0.224,0.5,0.5   S70.526,63.894,70.25,63.894z"/></g><g><path fill="#000000" d="M47.056,76.253h-3.875c-0.276,0-0.5-0.224-0.5-0.5s0.224-0.5,0.5-0.5h3.875c0.276,0,0.5,0.224,0.5,0.5   S47.332,76.253,47.056,76.253z"/></g><g><path fill="#000000" d="M57.457,62.315h-3.508c-0.276,0-0.5-0.224-0.5-0.5s0.224-0.5,0.5-0.5h3.508c0.276,0,0.5,0.224,0.5,0.5   S57.733,62.315,57.457,62.315z"/></g><g><path fill="#000000" d="M41.227,54.426H18.273V42.167h22.953V54.426z M19.273,53.426h20.953V43.167H19.273V53.426z"/></g><g><path fill="#000000" d="M41.227,80.738H18.273V68.479h22.953V80.738z M19.273,79.738h20.953V69.479H19.273V79.738z"/></g><g><path fill="#000000" d="M81.744,67.945H58.791V55.686h22.953V67.945z M59.791,66.945h20.953V56.686H59.791V66.945z"/></g><g><path fill="#000000" d="M50.417,30.673c-2.896,0-5.244,2.348-5.244,5.244c0,2.896,2.348,5.244,5.244,5.244   c2.896,0,5.244-2.348,5.244-5.244C55.66,33.021,53.313,30.673,50.417,30.673z M50.417,38.443h-2.526c0,0,0-0.452,0.22-0.891   c0.164-0.328,0.818-0.521,1.697-0.851v-0.697c0,0-0.269-0.21-0.269-0.649c-0.11,0-0.22-0.439,0-0.549   c0-0.089-0.439-1.098,0.22-1.098c0.11-0.439,1.648-0.439,1.757,0.11c0.075,0.373-0.22,0.923-0.22,0.988   c0.22,0.11,0.11,0.549,0,0.549c0,0.439-0.269,0.687-0.269,0.687v0.659c0.879,0.33,1.533,0.523,1.697,0.851   c0.22,0.439,0.22,0.891,0.22,0.891H50.417z"/></g><g><path fill="#000000" d="M93,88H7V22h86V88z M9,86h82V24H9V86z"/></g><g><path fill="#000000" d="M93,24H7v-9.204C7,13.069,8.752,12,10.375,12h79.25C91.248,12,93,13.069,93,14.796V24z M9,22h82v-7.204   C91,14.402,90.306,14,89.625,14h-79.25C9.694,14,9,14.402,9,14.796V22z"/></g><g><circle fill="#000000" cx="14.208" cy="17.792" r="1.542"/></g><g><circle fill="#000000" cx="19.208" cy="17.792" r="1.542"/></g><g><circle fill="#000000" cx="24.208" cy="17.792" r="1.542"/></g><g><circle fill="#000000" cx="50.536" cy="48.297" r="1.703"/></g><g><circle fill="#000000" cx="50.536" cy="61.815" r="1.703"/></g><g><circle fill="#000000" cx="50.536" cy="75.753" r="1.703"/></g><text x="0" y="115" fill="#000000" font-size="5px" font-weight="bold" font-family="'Helvetica Neue', Helvetica, Arial-Unicode, Arial, Sans-serif">Created by Dawid Sobolewski</text><text x="0" y="120" fill="#000000" font-size="5px" font-weight="bold" font-family="'Helvetica Neue', Helvetica, Arial-Unicode, Arial, Sans-serif">from the Noun Project</text></svg>