<svg xmlns="http://www.w3.org/2000/svg" xmlns:xlink="http://www.w3.org/1999/xlink" version="1.1" x="0px" y="0px" viewBox="0 0 100 125" enable-background="new 0 0 100 100" xml:space="preserve"><g><g><g><path d="M5.5,8.159v51.667c0,0.057,0.046,0.104,0.104,0.104h8.992c0.057,0,0.104,0.046,0.104,0.104v12.163     c0,2.828,3.517,4.131,5.359,1.987l12.219-14.217c0.02-0.023,0.048-0.036,0.079-0.036h5.808c0.058,0,0.104-0.047,0.104-0.104     v-3.792c0-0.057-0.046-0.104-0.104-0.104h-7.648c-0.03,0-0.059,0.013-0.079,0.036L18.883,69.417     C18.82,69.491,18.7,69.446,18.7,69.35V56.034c0-0.057-0.047-0.104-0.104-0.104H9.604c-0.058,0-0.104-0.047-0.104-0.104V12.159     c0-1.64,1.329-2.969,2.969-2.969h58.732c1.64,0,2.969,1.329,2.969,2.969v26.917c0,0.057,0.046,0.104,0.104,0.104h3.792     c0.058,0,0.104-0.047,0.104-0.104V8.159c0-1.64-1.329-2.969-2.969-2.969H8.469C6.829,5.19,5.5,6.519,5.5,8.159z"/></g><g><path d="M42.27,43.18v39.65h32.54l9.444,10.992c1.305,1.52,3.796,0.596,3.796-1.407V82.83h6.47V44.316     c0-0.628-0.509-1.136-1.136-1.136H42.27z M90.52,78.83h-6.47v8.62l-7.4-8.62H46.27V47.18h43.114c0.627,0,1.136,0.508,1.136,1.136     V78.83z"/></g><g><rect x="17.33" y="22" width="49.84" height="4"/></g><g><rect x="17.33" y="30.18" width="34.57" height="4"/></g><circle cx="56.429" cy="62.908" r="3.407"/><circle cx="68.503" cy="62.908" r="3.407"/><circle cx="80.577" cy="62.908" r="3.407"/></g></g><text x="0" y="115" fill="#000000" font-size="5px" font-weight="bold" font-family="'Helvetica Neue', Helvetica, Arial-Unicode, Arial, Sans-serif">Created by b a r z i n</text><text x="0" y="120" fill="#000000" font-size="5px" font-weight="bold" font-family="'Helvetica Neue', Helvetica, Arial-Unicode, Arial, Sans-serif">from the Noun Project</text></svg>